<?xml version="1.0" encoding="utf-8"?>
<!-- Generator: Adobe Illustrator 25.2.3, SVG Export Plug-In . SVG Version: 6.00 Build 0)  -->
<svg version="1.1" id="Ebene_1" xmlns="http://www.w3.org/2000/svg" xmlns:xlink="http://www.w3.org/1999/xlink" x="0px" y="0px"
	 viewBox="0 0 314.65 63.78" style="enable-background:new 0 0 314.65 63.78;" xml:space="preserve">
<style type="text/css">
	.st0{fill:#FFFFFF;}
</style>
<path class="st0" d="M0,0v63.78h170.08V0H0z M45.29,40.79h-0.75l-4.36-11.12l-4.24,11.12h-0.77l-7.48-17.81h3.37l4.61,11.27
	l4.22-10.9h0.7l4.39,10.9l4.64-11.27h3.14L45.29,40.79z M58.32,47.83h-1.06V15.95h1.06V47.83z M80.37,40.79h-0.75l-4.36-11.12
	l-4.24,11.12h-0.77l-7.48-17.81h3.37l4.61,11.27l4.22-10.9h0.7l4.39,10.9l4.64-11.27h3.14L80.37,40.79z M93.33,47.83h-1.06V15.95
	h1.06V47.83z M114.5,25.97h-6.09v14.72h-3.17V25.97h-6.09V23.1h15.34V25.97z M121.39,47.83h-1.06V15.95h1.06V47.83z M140.04,25.97
	h-8.73v5.14h7.26v2.72h-7.26v6.86h-3.12V23.1h11.85V25.97z"/>
<g>
	<path class="st0" d="M311.21,43.77c-1.23,0-1.94-1.02-1.94-2.7c0-1.61,0.9-2.7,2.03-2.7c0.58,0,1.12,0.2,1.71,0.74v3.68
		C312.43,43.45,311.86,43.77,311.21,43.77 M310.95,44.77c0.83,0,1.58-0.46,2.13-1h0.04l0.1,0.83h0.98V34.27h-1.2v2.71l0.06,1.2
		c-0.62-0.51-1.16-0.81-1.97-0.81c-1.61,0-3.06,1.42-3.06,3.71C308.03,43.43,309.18,44.77,310.95,44.77 M300.66,44.59h1.19v-5.1
		c0.71-0.71,1.2-1.09,1.93-1.09c0.93,0,1.33,0.57,1.33,1.89v4.31h1.19v-4.47c0-1.8-0.67-2.75-2.15-2.75c-0.97,0-1.7,0.52-2.36,1.19
		h-0.04l-0.1-1.01h-0.99V44.59z M295.01,44.77c0.97,0,1.67-0.51,2.32-1.27h0.04l0.1,1.1h0.98v-7.05h-1.19v5
		c-0.67,0.83-1.18,1.19-1.9,1.19c-0.93,0-1.32-0.56-1.32-1.88v-4.31h-1.2v4.47C292.85,43.81,293.52,44.77,295.01,44.77
		 M286.28,44.59h1.2v-4.26h3.62v-1.01h-3.62v-3.22h4.28v-1.01h-5.48V44.59z M276.61,47.62c1.42,0,2.15-1.06,2.64-2.45l2.65-7.63
		h-1.16l-1.26,3.9c-0.19,0.62-0.39,1.35-0.59,1.99h-0.06c-0.22-0.65-0.46-1.38-0.68-1.99l-1.43-3.9h-1.23l2.83,7.06l-0.16,0.52
		c-0.29,0.87-0.8,1.51-1.59,1.51c-0.17,0-0.39-0.06-0.54-0.1l-0.23,0.94C276.02,47.56,276.29,47.62,276.61,47.62 M271.32,47.01
		c-1.28,0-2.05-0.48-2.05-1.23c0-0.41,0.22-0.83,0.73-1.19c0.3,0.09,0.64,0.12,0.91,0.12h1.22c0.91,0,1.42,0.22,1.42,0.87
		C273.55,46.32,272.66,47.01,271.32,47.01 M271.14,41.56c-0.81,0-1.49-0.65-1.49-1.68c0-1.03,0.67-1.64,1.49-1.64
		s1.49,0.61,1.49,1.64C272.64,40.91,271.95,41.56,271.14,41.56 M271.14,47.84c2.19,0,3.57-1.13,3.57-2.43
		c0-1.17-0.83-1.68-2.46-1.68h-1.36c-0.96,0-1.25-0.32-1.25-0.77c0-0.39,0.2-0.62,0.45-0.84c0.32,0.16,0.71,0.25,1.06,0.25
		c1.44,0,2.58-0.94,2.58-2.45c0-0.6-0.25-1.13-0.58-1.45h1.45v-0.91h-2.45c-0.26-0.1-0.61-0.17-1-0.17c-1.44,0-2.65,0.97-2.65,2.51
		c0,0.84,0.45,1.52,0.91,1.9v0.06c-0.36,0.25-0.77,0.71-0.77,1.31c0,0.55,0.27,0.93,0.62,1.15v0.06c-0.64,0.44-1.03,1-1.03,1.6
		C268.23,47.16,269.42,47.84,271.14,47.84 M263.79,43.78c-1.2,0-2.03-1.09-2.03-2.7c0-1.62,0.83-2.73,2.03-2.73
		c1.22,0,2.03,1.1,2.03,2.73C265.82,42.69,265.01,43.78,263.79,43.78 M263.79,44.77c1.73,0,3.26-1.35,3.26-3.68
		c0-2.36-1.54-3.71-3.26-3.71c-1.73,0-3.26,1.35-3.26,3.71C260.53,43.42,262.06,44.77,263.79,44.77 M258.81,44.77
		c0.32,0,0.52-0.04,0.68-0.12l-0.16-0.9c-0.13,0.03-0.19,0.03-0.26,0.03c-0.17,0-0.33-0.15-0.33-0.52v-8.99h-1.19v8.9
		C257.55,44.2,257.91,44.77,258.81,44.77 M252.54,43.78c-1.2,0-2.03-1.09-2.03-2.7c0-1.62,0.83-2.73,2.03-2.73
		c1.22,0,2.03,1.1,2.03,2.73C254.57,42.69,253.76,43.78,252.54,43.78 M252.54,44.77c1.73,0,3.26-1.35,3.26-3.68
		c0-2.36-1.54-3.71-3.26-3.71c-1.73,0-3.26,1.35-3.26,3.71C249.28,43.42,250.81,44.77,252.54,44.77 M241.93,44.59h1.19v-5.1
		c0.71-0.71,1.2-1.09,1.93-1.09c0.93,0,1.34,0.57,1.34,1.89v4.31h1.19v-4.47c0-1.8-0.67-2.75-2.15-2.75c-0.97,0-1.7,0.52-2.36,1.19
		h-0.04l-0.1-1.01h-0.99V44.59z M234.17,44.59h1.19v-5.1c0.71-0.71,1.2-1.09,1.93-1.09c0.93,0,1.33,0.57,1.33,1.89v4.31h1.19v-4.47
		c0-1.8-0.67-2.75-2.14-2.75c-0.97,0-1.68,0.52-2.35,1.16l0.04-1.45v-2.81h-1.19V44.59z M230.46,44.77c0.84,0,1.64-0.33,2.28-0.9
		l-0.52-0.8c-0.43,0.39-1,0.71-1.65,0.71c-1.29,0-2.18-1.09-2.18-2.7c0-1.62,0.93-2.73,2.2-2.73c0.57,0,1,0.26,1.41,0.62l0.61-0.78
		c-0.49-0.45-1.13-0.83-2.06-0.83c-1.81,0-3.39,1.35-3.39,3.71C227.16,43.42,228.59,44.77,230.46,44.77 M221.08,40.5
		c0.15-1.39,1.05-2.19,2.03-2.19c1.1,0,1.74,0.77,1.74,2.19H221.08z M223.3,44.77c0.96,0,1.71-0.33,2.32-0.72l-0.42-0.78
		c-0.52,0.33-1.09,0.55-1.76,0.55c-1.35,0-2.26-0.96-2.35-2.45h4.76c0.03-0.17,0.04-0.43,0.04-0.68c0-2.02-1.01-3.31-2.81-3.31
		c-1.61,0-3.16,1.4-3.16,3.71S221.41,44.77,223.3,44.77 M216,44.59h1.22v-8.5h2.87v-1.01h-6.96v1.01H216V44.59z M205.77,43.77
		c-1.23,0-1.94-1.02-1.94-2.7c0-1.61,0.9-2.7,2.03-2.7c0.58,0,1.12,0.2,1.71,0.74v3.68C206.99,43.45,206.42,43.77,205.77,43.77
		 M205.51,44.77c0.83,0,1.58-0.46,2.13-1h0.04l0.1,0.83h0.98V34.27h-1.2v2.71l0.06,1.2c-0.62-0.51-1.16-0.81-1.97-0.81
		c-1.61,0-3.06,1.42-3.06,3.71C202.6,43.43,203.74,44.77,205.51,44.77 M195.37,44.59h1.19v-5.1c0.71-0.71,1.2-1.09,1.93-1.09
		c0.93,0,1.33,0.57,1.33,1.89v4.31h1.19v-4.47c0-1.8-0.67-2.75-2.15-2.75c-0.97,0-1.7,0.52-2.36,1.19h-0.04l-0.1-1.01h-0.98V44.59z
		 M190.25,43.81c-0.7,0-1.25-0.33-1.25-1.13c0-0.9,0.81-1.48,3.16-1.77v1.96C191.48,43.48,190.93,43.81,190.25,43.81 M189.9,44.77
		c0.88,0,1.67-0.46,2.34-1.01h0.04l0.1,0.84h0.99v-4.32c0-1.76-0.72-2.9-2.45-2.9c-1.13,0-2.12,0.49-2.77,0.91l0.46,0.83
		c0.55-0.38,1.29-0.75,2.1-0.75c1.16,0,1.45,0.87,1.45,1.77c-3,0.33-4.32,1.1-4.32,2.64C187.84,44.03,188.72,44.77,189.9,44.77"/>
	<path class="st0" d="M272.05,24.5c0.14-1.39,1.04-2.19,2.03-2.19c1.1,0,1.74,0.77,1.74,2.19H272.05z M274.27,28.77
		c0.96,0,1.71-0.33,2.32-0.72l-0.42-0.78c-0.52,0.33-1.09,0.55-1.75,0.55c-1.35,0-2.26-0.96-2.35-2.45h4.76
		c0.03-0.17,0.04-0.43,0.04-0.68c0-2.02-1.01-3.31-2.81-3.31c-1.61,0-3.16,1.4-3.16,3.71S272.38,28.77,274.27,28.77 M267.84,28.77
		c0.84,0,1.64-0.33,2.28-0.9l-0.52-0.8c-0.43,0.39-1,0.71-1.65,0.71c-1.29,0-2.18-1.09-2.18-2.7c0-1.62,0.93-2.73,2.2-2.73
		c0.57,0,1,0.26,1.41,0.62l0.61-0.78c-0.49-0.45-1.13-0.83-2.06-0.83c-1.81,0-3.39,1.35-3.39,3.71
		C264.53,27.42,265.97,28.77,267.84,28.77 M257.19,28.59h1.19v-5.1c0.71-0.71,1.2-1.09,1.93-1.09c0.93,0,1.33,0.57,1.33,1.88v4.31
		h1.19v-4.47c0-1.8-0.67-2.75-2.14-2.75c-0.97,0-1.7,0.52-2.36,1.19h-0.04l-0.1-1.01h-0.98V28.59z M250.66,24.5
		c0.15-1.39,1.04-2.19,2.03-2.19c1.1,0,1.74,0.77,1.74,2.19H250.66z M252.88,28.77c0.96,0,1.71-0.33,2.32-0.72l-0.42-0.78
		c-0.52,0.33-1.09,0.55-1.76,0.55c-1.35,0-2.26-0.96-2.35-2.45h4.76c0.03-0.17,0.04-0.43,0.04-0.68c0-2.02-1.01-3.31-2.81-3.31
		c-1.61,0-3.16,1.4-3.16,3.71S250.99,28.77,252.88,28.77 M247.2,20.09c0.46,0,0.83-0.32,0.83-0.77c0-0.46-0.36-0.77-0.83-0.77
		c-0.46,0-0.83,0.3-0.83,0.77C246.37,19.78,246.73,20.09,247.2,20.09 M246.59,28.59h1.19v-7.04h-1.19V28.59z M242.88,28.77
		c0.84,0,1.64-0.33,2.28-0.9l-0.52-0.8c-0.43,0.39-1,0.71-1.65,0.71c-1.29,0-2.18-1.09-2.18-2.7c0-1.62,0.93-2.73,2.2-2.73
		c0.57,0,1,0.26,1.41,0.62l0.61-0.78c-0.49-0.45-1.13-0.83-2.06-0.83c-1.81,0-3.39,1.35-3.39,3.71
		C239.58,27.42,241.01,28.77,242.88,28.77 M235.04,28.77c2,0,3.23-1.2,3.23-2.71c0-1.41-0.85-2.06-1.96-2.54l-1.35-0.58
		c-0.75-0.32-1.58-0.67-1.58-1.58c0-0.86,0.71-1.39,1.77-1.39c0.88,0,1.58,0.35,2.16,0.9l0.65-0.78c-0.68-0.69-1.68-1.17-2.81-1.17
		c-1.73,0-2.99,1.07-2.99,2.52c0,1.39,1.03,2.07,1.93,2.45l1.36,0.6c0.9,0.41,1.58,0.71,1.58,1.68c0,0.93-0.74,1.55-1.99,1.55
		c-0.99,0-1.94-0.48-2.62-1.19l-0.72,0.84C232.53,28.22,233.71,28.77,235.04,28.77 M224.05,27.81c-0.7,0-1.25-0.33-1.25-1.13
		c0-0.9,0.81-1.48,3.16-1.77v1.96C225.28,27.48,224.73,27.81,224.05,27.81 M223.7,28.77c0.89,0,1.67-0.46,2.34-1.01h0.04l0.1,0.84
		h0.99v-4.32c0-1.76-0.72-2.9-2.45-2.9c-1.13,0-2.12,0.49-2.77,0.91l0.46,0.83c0.55-0.38,1.29-0.75,2.1-0.75
		c1.16,0,1.45,0.87,1.45,1.77c-3,0.33-4.32,1.1-4.32,2.64C221.64,28.03,222.53,28.77,223.7,28.77 M214.33,28.59h1.19v-5.1
		c0.71-0.71,1.2-1.09,1.93-1.09c0.93,0,1.33,0.57,1.33,1.88v4.31h1.19v-4.47c0-1.8-0.67-2.75-2.14-2.75c-0.97,0-1.7,0.52-2.37,1.19
		h-0.04l-0.1-1.01h-0.98V28.59z M206.55,28.59h1.19v-5.1c0.71-0.71,1.2-1.09,1.93-1.09c0.93,0,1.34,0.57,1.34,1.88v4.31h1.19v-4.47
		c0-1.8-0.67-2.75-2.15-2.75c-0.97,0-1.7,0.52-2.36,1.19h-0.04l-0.1-1.01h-0.98V28.59z M200.02,24.5c0.15-1.39,1.04-2.19,2.03-2.19
		c1.1,0,1.74,0.77,1.74,2.19H200.02z M202.24,28.77c0.96,0,1.71-0.33,2.32-0.72l-0.42-0.78c-0.52,0.33-1.09,0.55-1.75,0.55
		c-1.35,0-2.26-0.96-2.35-2.45h4.76c0.03-0.17,0.04-0.43,0.04-0.68c0-2.02-1.01-3.31-2.81-3.31c-1.61,0-3.16,1.4-3.16,3.71
		S200.35,28.77,202.24,28.77 M196.56,20.09c0.46,0,0.83-0.32,0.83-0.77c0-0.46-0.36-0.77-0.83-0.77c-0.46,0-0.82,0.3-0.82,0.77
		C195.73,19.78,196.09,20.09,196.56,20.09 M195.95,28.59h1.19v-7.04h-1.19V28.59z M190.13,28.59h1.41l3.01-9.51h-1.23l-1.52,5.13
		c-0.33,1.13-0.57,2.03-0.91,3.15h-0.06c-0.36-1.12-0.58-2.01-0.93-3.15l-1.52-5.13h-1.29L190.13,28.59z"/>
</g>
</svg>
