<?xml version="1.0" encoding="utf-8"?>
<!-- Generator: Adobe Illustrator 26.0.1, SVG Export Plug-In . SVG Version: 6.00 Build 0)  -->
<svg version="1.1" id="Ebene_1" xmlns="http://www.w3.org/2000/svg" xmlns:xlink="http://www.w3.org/1999/xlink" x="0px" y="0px"
	 viewBox="0 0 266.7 100" enable-background="new 0 0 266.7 100" xml:space="preserve">
<rect fill="#008FD4" width="266.7" height="100"/>
<g>
	<polygon fill="#FFFFFF" points="43.4,36 48.7,36 55.9,53.7 62.5,36.6 63.6,36.6 70.5,53.7 77.8,36 82.7,36 71,64 69.8,64 63,46.5 
		56.3,64 55.1,64 	"/>
	<polygon fill="#FFFFFF" points="98.4,36 103.7,36 110.9,53.7 117.5,36.6 118.6,36.6 125.5,53.7 132.8,36 137.7,36 126,64 124.8,64 
		118,46.5 111.3,64 110.1,64 	"/>
	<polygon fill="#FFFFFF" points="155.5,40.7 155.5,36.2 179.5,36.2 179.5,40.7 170,40.7 170,63.8 165,63.8 165,40.7 	"/>
	<polygon fill="#FFFFFF" points="201,36.2 219.6,36.2 219.6,40.7 205.9,40.7 205.9,48.8 217.3,48.8 217.3,53 205.9,53 205.9,63.8 
		201,63.8 	"/>
	<rect x="89.8" y="25" fill="#FFFFFF" width="1.7" height="50"/>
	<rect x="144.7" y="25" fill="#FFFFFF" width="1.7" height="50"/>
	<rect x="188.7" y="25" fill="#FFFFFF" width="1.7" height="50"/>
</g>
</svg>
